<svg width="22" height="22" viewBox="0 0 22 22" fill="none" xmlns="http://www.w3.org/2000/svg">
<g clip-path="url(#clip0_491_5553)">
<path d="M3.64283 20.3707L18.1859 5.84094L15.8532 3.49484L1.29674 18.0379L0.0303801 20.9972C-0.0318268 21.1572 0.00149837 21.3061 0.130356 21.4437C0.259213 21.5815 0.403622 21.6193 0.563584 21.5572L3.64283 20.3707ZM19.359 4.69456L20.7053 3.37487C21.043 3.02829 21.2207 2.68171 21.2386 2.33513C21.2563 1.98854 21.1141 1.65973 20.812 1.3487L20.3587 0.895478C20.0566 0.59333 19.73 0.455586 19.379 0.482246C19.028 0.508906 18.6836 0.68664 18.3459 1.01545L16.9996 2.34846L19.359 4.69456Z" fill="white"/>
</g>
<defs>
<clipPath id="clip0_491_5553">
<rect width="21.2401" height="21.5861" fill="white"/>
</clipPath>
</defs>
</svg>
