<svg width="20" height="20" viewBox="0 0 20 20" fill="none" xmlns="http://www.w3.org/2000/svg">
<g clip-path="url(#clip0_290_40)">
<path d="M4.85352 11.0156H9.95117C10.1465 11.0156 10.3092 10.9505 10.4395 10.8203C10.5697 10.6901 10.6348 10.5273 10.6348 10.332V3.75C10.6348 3.5612 10.5697 3.4017 10.4395 3.27148C10.3092 3.14128 10.1465 3.07617 9.95117 3.07617C9.76237 3.07617 9.60287 3.14128 9.47266 3.27148C9.34245 3.4017 9.27734 3.5612 9.27734 3.75V9.6582H4.85352C4.65821 9.6582 4.49545 9.72331 4.36523 9.85352C4.23503 9.98371 4.16992 10.1432 4.16992 10.332C4.16992 10.5273 4.23503 10.6901 4.36523 10.8203C4.49545 10.9505 4.65821 11.0156 4.85352 11.0156Z" fill="white" fill-opacity="0.85"/>
<path d="M9.96094 19.9219C11.3216 19.9219 12.6026 19.6615 13.8037 19.1406C15.0049 18.6198 16.0645 17.9004 16.9824 16.9824C17.9004 16.0645 18.6198 15.0049 19.1406 13.8037C19.6615 12.6026 19.9219 11.3216 19.9219 9.96094C19.9219 8.60026 19.6615 7.31933 19.1406 6.11816C18.6198 4.91699 17.9004 3.85742 16.9824 2.93945C16.0645 2.02148 15.0033 1.30208 13.7988 0.78125C12.5944 0.260417 11.3119 0 9.95117 0C8.5905 0 7.30957 0.260417 6.1084 0.78125C4.90723 1.30208 3.84928 2.02148 2.93457 2.93945C2.01986 3.85742 1.30208 4.91699 0.78125 6.11816C0.260417 7.31933 0 8.60026 0 9.96094C0 11.3216 0.260417 12.6026 0.78125 13.8037C1.30208 15.0049 2.02148 16.0645 2.93945 16.9824C3.85742 17.9004 4.91699 18.6198 6.11816 19.1406C7.31933 19.6615 8.60026 19.9219 9.96094 19.9219ZM9.96094 18.2617C8.80859 18.2617 7.73112 18.0469 6.72852 17.6172C5.72591 17.1875 4.84538 16.5935 4.08691 15.835C3.32845 15.0765 2.736 14.196 2.30957 13.1934C1.88314 12.1908 1.66992 11.1133 1.66992 9.96094C1.66992 8.80859 1.88314 7.73112 2.30957 6.72852C2.736 5.72591 3.32682 4.84375 4.08203 4.08203C4.83724 3.32031 5.71614 2.72623 6.71875 2.2998C7.72136 1.87337 8.79883 1.66016 9.95117 1.66016C11.1035 1.66016 12.181 1.87337 13.1836 2.2998C14.1862 2.72623 15.0684 3.32031 15.8301 4.08203C16.5918 4.84375 17.1875 5.72591 17.6172 6.72852C18.0469 7.73112 18.2617 8.80859 18.2617 9.96094C18.2617 11.1133 18.0485 12.1908 17.6221 13.1934C17.1956 14.196 16.6032 15.0765 15.8447 15.835C15.0862 16.5935 14.2041 17.1875 13.1982 17.6172C12.1924 18.0469 11.1133 18.2617 9.96094 18.2617Z" fill="#FF9500"/>
</g>
<defs>
<clipPath id="clip0_290_40">
<rect width="19.9219" height="19.9316" fill="white"/>
</clipPath>
</defs>
</svg>
