<svg width="121" height="34" viewBox="0 0 121 34" fill="none" xmlns="http://www.w3.org/2000/svg">
<path d="M28.4741 17.3364L38.9629 9.2809L8.95308 32.208L18.7136 24.7722M28.4741 17.3364L16.237 13.3086M28.4741 17.3364L18.7136 24.7722M13.9062 2L4 9.2809L16.237 13.3086M16.237 13.3086L23.2296 7.88669M18.7136 24.7722L32.5531 29.7294" stroke="white" stroke-width="3.072"/>
<path d="M52.62 24.25C48.4 24.25 45.75 21.43 45.75 16.78V16.77C45.75 12.12 48.41 9.32 52.62 9.32C56.12 9.32 58.63 11.53 58.91 14.59L58.92 14.68H55.98L55.94 14.51C55.6 12.92 54.42 11.88 52.62 11.88C50.31 11.88 48.83 13.74 48.83 16.76V16.77C48.83 19.81 50.31 21.69 52.62 21.69C54.36 21.69 55.58 20.69 55.97 18.98L55.99 18.88H58.93L58.92 18.99C58.64 22.06 56.11 24.25 52.62 24.25ZM62.39 27.53C61.82 27.53 61.24 27.46 60.9 27.4V25.23C61.11 25.27 61.45 25.33 61.88 25.33C62.75 25.33 63.23 25.08 63.49 24.35L63.62 24L59.83 13.28H63.04L65.3 21.66H65.38L67.65 13.28H70.73L67.05 24.19C66.21 26.72 64.77 27.53 62.39 27.53ZM71.75 27.5V13.28H74.67V15.15H74.74C75.32 13.85 76.49 13.06 78.01 13.06C80.73 13.06 82.39 15.14 82.39 18.63V18.64C82.39 22.12 80.73 24.22 78.05 24.22C76.52 24.22 75.31 23.44 74.73 22.17H74.67V27.5H71.75ZM77.05 21.8C78.5 21.8 79.42 20.59 79.42 18.64V18.63C79.42 16.67 78.5 15.48 77.05 15.48C75.63 15.48 74.66 16.7 74.66 18.64V18.65C74.66 20.58 75.63 21.8 77.05 21.8ZM83.98 24V9.57H86.9V15.13H86.96C87.51 13.8 88.64 13.06 90.25 13.06C92.57 13.06 94.01 14.68 94.01 17.27V24H91.09V17.87C91.09 16.37 90.35 15.48 89.02 15.48C87.73 15.48 86.9 16.46 86.9 17.86V24H83.98ZM100.77 24.22C97.49 24.22 95.5 22.09 95.5 18.66V18.65C95.5 15.24 97.51 13.06 100.65 13.06C103.79 13.06 105.76 15.19 105.76 18.43V19.33H98.38C98.41 21.04 99.34 22.04 100.83 22.04C102.03 22.04 102.76 21.38 102.97 20.78L102.99 20.72H105.67L105.64 20.83C105.31 22.41 103.83 24.22 100.77 24.22ZM100.7 15.24C99.5 15.24 98.6 16.04 98.41 17.49H102.96C102.78 16.01 101.91 15.24 100.7 15.24ZM107.27 24V13.28H110.19V15.15H110.25C110.57 13.83 111.44 13.06 112.69 13.06C113.01 13.06 113.31 13.11 113.53 13.17V15.74C113.29 15.64 112.89 15.58 112.47 15.58C111.03 15.58 110.19 16.44 110.19 18V24H107.27Z" fill="white"/>
</svg>
