<svg width="21" height="18" viewBox="0 0 21 18" fill="none" xmlns="http://www.w3.org/2000/svg">
<path d="M19.6607 9.50671H16.848C16.0832 9.50671 15.7008 9.50671 15.4129 9.71422C15.125 9.92173 15.004 10.2845 14.7622 11.0101L14.6651 11.3013C14.4233 12.0269 14.3023 12.3897 14.0144 12.5972C13.7265 12.8047 13.3441 12.8047 12.5793 12.8047H8.05333C7.2885 12.8047 6.90608 12.8047 6.61818 12.5972C6.33027 12.3897 6.20934 12.0269 5.96748 11.3013L5.87041 11.0101C5.62855 10.2845 5.50762 9.92173 5.21971 9.71422C4.93181 9.50671 4.54939 9.50671 3.78456 9.50671H0.971924" stroke="white" stroke-width="1.09934"/>
<path d="M7.56787 5.659L10.3162 8.40735M10.3162 8.40735L13.0646 5.659M10.3162 8.40735L10.3162 0.71198" stroke="white" stroke-width="1.09934"/>
<path d="M4.26994 6.20869L2.38179 7.46746C1.86632 7.8111 1.60859 7.98292 1.42201 8.20993C1.25683 8.4109 1.1329 8.64247 1.05731 8.89139C0.971924 9.17255 0.971924 9.48231 0.971924 10.1018V14.036C0.971924 15.1442 0.971924 15.6983 1.1876 16.1216C1.37732 16.494 1.68004 16.7967 2.05237 16.9864C2.47566 17.2021 3.02978 17.2021 4.13802 17.2021H16.4946C17.6028 17.2021 18.1569 17.2021 18.5802 16.9864C18.9526 16.7967 19.2553 16.494 19.445 16.1216C19.6607 15.6983 19.6607 15.1442 19.6607 14.036V10.1018C19.6607 9.48231 19.6607 9.17255 19.5753 8.89139C19.4997 8.64247 19.3758 8.4109 19.2106 8.20993C19.024 7.98292 18.7663 7.8111 18.2508 7.46746L16.3627 6.20869" stroke="white" stroke-width="1.09934" stroke-linecap="round"/>
</svg>
