<svg width="357" height="224" viewBox="0 0 357 224" fill="none" xmlns="http://www.w3.org/2000/svg">
<circle cx="232.875" cy="65.0312" r="15.1875" fill="#FFEE00" stroke="#FFEE00" stroke-width="10.125" stroke-linecap="round"/>
<path d="M103.133 186.531H200.617C210.204 186.531 216.014 175.947 210.867 167.858L162.125 91.2642C157.351 83.7615 146.399 83.7615 141.625 91.2642L92.8828 167.858C87.7356 175.947 93.5459 186.531 103.133 186.531Z" fill="#5D5D5D"/>
<path d="M174.577 186.531H250.673C260.377 186.531 266.165 175.716 260.782 167.642L222.734 110.57C217.925 103.357 207.325 103.357 202.516 110.57L164.468 167.642C159.085 175.716 164.873 186.531 174.577 186.531Z" fill="#5D5D5D"/>
<path d="M0.699463 218.656L6.43927 202.605H9.66513L15.4049 218.656H12.3904L11.0333 214.507H5.05994L3.70285 218.656H0.699463ZM8.01883 205.464L5.78297 212.294H10.3103L8.08557 205.464H8.01883ZM18.2081 218.656L15.0156 206.865H17.7965L19.7877 215.92H19.8433L22.1459 206.865H24.8044L27.107 215.92H27.1738L29.1649 206.865H31.9013L28.7088 218.656H25.7944L23.4696 210.035H23.414L21.1003 218.656H18.2081ZM31.2561 221.938L32.1349 216.042H34.8157L33.1917 221.938H31.2561ZM43.9927 218.856C41.6345 218.856 40.0438 217.399 40.0438 215.297V215.275C40.0438 213.183 41.6679 211.926 44.5267 211.748L47.6079 211.559V210.747C47.6079 209.557 46.8293 208.834 45.4277 208.834C44.1151 208.834 43.3142 209.446 43.1362 210.314L43.114 210.414H40.5444L40.5555 210.28C40.7224 208.189 42.5355 206.62 45.5278 206.62C48.4756 206.62 50.3777 208.178 50.3777 210.547V218.656H47.6079V216.843H47.5412C46.8626 218.078 45.55 218.856 43.9927 218.856ZM42.8025 215.186C42.8025 216.153 43.6034 216.743 44.8159 216.743C46.4066 216.743 47.6079 215.686 47.6079 214.285V213.395L44.916 213.562C43.5478 213.651 42.8025 214.24 42.8025 215.175V215.186ZM56.9963 218.89C54.0152 218.89 52.1241 216.554 52.1241 212.761V212.75C52.1241 208.945 54.0263 206.62 56.9852 206.62C58.6537 206.62 59.9997 207.477 60.6671 208.89H60.7338V202.605H63.5036V218.656H60.7338V216.654H60.6671C59.9997 218.044 58.6982 218.89 56.9963 218.89ZM57.8306 216.554C59.5436 216.554 60.7338 215.074 60.7338 212.761V212.75C60.7338 210.447 59.5325 208.956 57.8306 208.956C56.0619 208.956 54.9495 210.402 54.9495 212.75V212.761C54.9495 215.108 56.0508 216.554 57.8306 216.554ZM70.2112 218.89C67.2301 218.89 65.339 216.554 65.339 212.761V212.75C65.339 208.945 67.2412 206.62 70.2001 206.62C71.8686 206.62 73.2146 207.477 73.882 208.89H73.9487V202.605H76.7185V218.656H73.9487V216.654H73.882C73.2146 218.044 71.9131 218.89 70.2112 218.89ZM71.0455 216.554C72.7585 216.554 73.9487 215.074 73.9487 212.761V212.75C73.9487 210.447 72.7474 208.956 71.0455 208.956C69.2768 208.956 68.1644 210.402 68.1644 212.75V212.761C68.1644 215.108 69.2657 216.554 71.0455 216.554ZM83.6041 218.656V206.865H86.3739V208.712H86.4295C87.0413 207.444 88.2426 206.62 90.0336 206.62C92.6254 206.62 94.1048 208.289 94.1048 211.025V218.656H91.335V211.582C91.335 209.902 90.5564 208.956 88.9768 208.956C87.3861 208.956 86.3739 210.113 86.3739 211.815V218.656H83.6041ZM101.547 218.89C98.076 218.89 95.8401 216.576 95.8401 212.761V212.738C95.8401 208.956 98.1093 206.62 101.535 206.62C104.973 206.62 107.253 208.934 107.253 212.738V212.761C107.253 216.587 105.006 218.89 101.547 218.89ZM101.558 216.654C103.304 216.654 104.428 215.23 104.428 212.761V212.738C104.428 210.28 103.293 208.867 101.535 208.867C99.8112 208.867 98.6655 210.291 98.6655 212.738V212.761C98.6655 215.241 99.789 216.654 101.558 216.654ZM113.415 218.89C110.946 218.89 109.778 217.889 109.778 215.464V209.001H108.109V206.865H109.778V203.873H112.592V206.865H114.784V209.001H112.592V215.23C112.592 216.387 113.104 216.754 114.116 216.754C114.383 216.754 114.595 216.721 114.784 216.71V218.79C114.461 218.834 113.972 218.89 113.415 218.89ZM121.647 218.89C118.11 218.89 115.974 216.543 115.974 212.794V212.783C115.974 209.068 118.143 206.62 121.514 206.62C124.884 206.62 126.975 208.99 126.975 212.549V213.439H118.721C118.766 215.508 119.901 216.732 121.703 216.732C123.082 216.732 123.983 215.998 124.25 215.208L124.272 215.13H126.864L126.831 215.252C126.464 217.066 124.728 218.89 121.647 218.89ZM121.547 208.79C120.079 208.79 118.977 209.78 118.755 211.593H124.283C124.083 209.724 123.015 208.79 121.547 208.79ZM133.371 218.89C130.279 218.89 128.51 217.422 128.266 215.23L128.254 215.13H130.98L131.002 215.23C131.213 216.242 131.981 216.843 133.382 216.843C134.728 216.843 135.54 216.298 135.54 215.43V215.419C135.54 214.707 135.129 214.307 133.905 214.029L131.947 213.595C129.689 213.094 128.555 211.993 128.555 210.247V210.236C128.555 208.078 130.435 206.62 133.282 206.62C136.219 206.62 137.932 208.233 138.032 210.269L138.043 210.391H135.463L135.451 210.302C135.329 209.357 134.573 208.667 133.282 208.667C132.059 208.667 131.291 209.235 131.291 210.102V210.113C131.291 210.792 131.747 211.237 132.971 211.515L134.94 211.949C137.376 212.494 138.321 213.45 138.321 215.163V215.175C138.321 217.399 136.263 218.89 133.371 218.89ZM148.132 218.856C145.774 218.856 144.184 217.399 144.184 215.297V215.275C144.184 213.183 145.808 211.926 148.666 211.748L151.748 211.559V210.747C151.748 209.557 150.969 208.834 149.567 208.834C148.255 208.834 147.454 209.446 147.276 210.314L147.254 210.414H144.684L144.695 210.28C144.862 208.189 146.675 206.62 149.667 206.62C152.615 206.62 154.517 208.178 154.517 210.547V218.656H151.748V216.843H151.681C151.002 218.078 149.69 218.856 148.132 218.856ZM146.942 215.186C146.942 216.153 147.743 216.743 148.956 216.743C150.546 216.743 151.748 215.686 151.748 214.285V213.395L149.056 213.562C147.687 213.651 146.942 214.24 146.942 215.175V215.186ZM156.753 218.656V206.865H159.523V208.712H159.579C160.19 207.444 161.392 206.62 163.183 206.62C165.775 206.62 167.254 208.289 167.254 211.025V218.656H164.484V211.582C164.484 209.902 163.706 208.956 162.126 208.956C160.535 208.956 159.523 210.113 159.523 211.815V218.656H156.753ZM173.861 218.89C170.88 218.89 168.989 216.554 168.989 212.761V212.75C168.989 208.945 170.891 206.62 173.85 206.62C175.519 206.62 176.865 207.477 177.532 208.89H177.599V202.605H180.369V218.656H177.599V216.654H177.532C176.865 218.044 175.563 218.89 173.861 218.89ZM174.696 216.554C176.409 216.554 177.599 215.074 177.599 212.761V212.75C177.599 210.447 176.398 208.956 174.696 208.956C172.927 208.956 171.815 210.402 171.815 212.75V212.761C171.815 215.108 172.916 216.554 174.696 216.554ZM188.022 218.656V209.001H186.409V206.865H188.022V205.742C188.022 203.439 189.112 202.371 191.67 202.371C192.215 202.371 192.805 202.416 193.15 202.482V204.418C192.927 204.385 192.616 204.362 192.316 204.362C191.237 204.362 190.736 204.863 190.736 205.82V206.865H193.105V209.001H190.792V218.656H188.022ZM196.398 205.174C195.53 205.174 194.852 204.485 194.852 203.662C194.852 202.816 195.53 202.138 196.398 202.138C197.266 202.138 197.933 202.816 197.933 203.662C197.933 204.485 197.266 205.174 196.398 205.174ZM195.008 218.656V206.865H197.777V218.656H195.008ZM200.213 218.656V202.605H202.983V218.656H200.213ZM205.419 218.656V202.605H208.189V218.656H205.419ZM219.491 218.89C217.021 218.89 215.853 217.889 215.853 215.464V209.001H214.185V206.865H215.853V203.873H218.668V206.865H220.859V209.001H218.668V215.23C218.668 216.387 219.179 216.754 220.191 216.754C220.458 216.754 220.67 216.721 220.859 216.71V218.79C220.536 218.834 220.047 218.89 219.491 218.89ZM222.839 218.656V202.605H225.609V208.845H225.675C226.287 207.432 227.544 206.62 229.313 206.62C231.849 206.62 233.473 208.467 233.473 211.315V218.656H230.703V211.86C230.703 210.047 229.791 208.956 228.201 208.956C226.632 208.956 225.609 210.147 225.609 211.86V218.656H222.839ZM240.893 218.89C237.355 218.89 235.22 216.543 235.22 212.794V212.783C235.22 209.068 237.389 206.62 240.759 206.62C244.13 206.62 246.221 208.99 246.221 212.549V213.439H237.967C238.012 215.508 239.146 216.732 240.948 216.732C242.328 216.732 243.229 215.998 243.496 215.208L243.518 215.13H246.11L246.076 215.252C245.709 217.066 243.974 218.89 240.893 218.89ZM240.792 208.79C239.324 208.79 238.223 209.78 238 211.593H243.529C243.329 209.724 242.261 208.79 240.792 208.79ZM257.756 218.89C254.219 218.89 252.083 216.543 252.083 212.794V212.783C252.083 209.068 254.252 206.62 257.623 206.62C260.993 206.62 263.084 208.99 263.084 212.549V213.439H254.831C254.875 215.508 256.01 216.732 257.812 216.732C259.191 216.732 260.092 215.998 260.359 215.208L260.381 215.13H262.973L262.94 215.252C262.573 217.066 260.837 218.89 257.756 218.89ZM257.656 208.79C256.188 208.79 255.086 209.78 254.864 211.593H260.392C260.192 209.724 259.124 208.79 257.656 208.79ZM264.875 218.656V206.865H267.645V208.756H267.701C268.201 207.466 269.414 206.62 270.971 206.62C272.617 206.62 273.808 207.488 274.241 209.001H274.308C274.875 207.533 276.277 206.62 277.979 206.62C280.304 206.62 281.828 208.2 281.828 210.558V218.656H279.058V211.248C279.058 209.791 278.301 208.956 276.944 208.956C275.61 208.956 274.697 209.946 274.697 211.37V218.656H272.005V211.103C272.005 209.78 271.205 208.956 269.914 208.956C268.579 208.956 267.645 210.002 267.645 211.437V218.656H264.875ZM284.052 222.55V206.865H286.822V208.901H286.878C287.556 207.488 288.847 206.62 290.537 206.62C293.53 206.62 295.421 208.956 295.421 212.761V212.772C295.421 216.554 293.53 218.89 290.571 218.89C288.891 218.89 287.545 218.044 286.878 216.665H286.822V222.55H284.052ZM289.714 216.554C291.483 216.554 292.595 215.097 292.595 212.772V212.761C292.595 210.402 291.483 208.956 289.714 208.956C288.001 208.956 286.8 210.447 286.8 212.761V212.772C286.8 215.074 288.001 216.554 289.714 216.554ZM301.583 218.89C299.114 218.89 297.946 217.889 297.946 215.464V209.001H296.277V206.865H297.946V203.873H300.76V206.865H302.951V209.001H300.76V215.23C300.76 216.387 301.272 216.754 302.284 216.754C302.551 216.754 302.762 216.721 302.951 216.71V218.79C302.629 218.834 302.139 218.89 301.583 218.89ZM306.322 205.174C305.454 205.174 304.776 204.485 304.776 203.662C304.776 202.816 305.454 202.138 306.322 202.138C307.19 202.138 307.857 202.816 307.857 203.662C307.857 204.485 307.19 205.174 306.322 205.174ZM304.931 218.656V206.865H307.701V218.656H304.931ZM310.059 218.656V206.865H312.829V208.712H312.885C313.497 207.444 314.698 206.62 316.489 206.62C319.081 206.62 320.56 208.289 320.56 211.025V218.656H317.79V211.582C317.79 209.902 317.012 208.956 315.432 208.956C313.842 208.956 312.829 210.113 312.829 211.815V218.656H310.059ZM327.969 218.89C324.431 218.89 322.296 216.543 322.296 212.794V212.783C322.296 209.068 324.465 206.62 327.835 206.62C331.206 206.62 333.297 208.99 333.297 212.549V213.439H325.043C325.088 215.508 326.222 216.732 328.024 216.732C329.404 216.732 330.305 215.998 330.572 215.208L330.594 215.13H333.186L333.152 215.252C332.785 217.066 331.05 218.89 327.969 218.89ZM327.868 208.79C326.4 208.79 325.299 209.78 325.076 211.593H330.605C330.405 209.724 329.337 208.79 327.868 208.79ZM339.693 218.89C336.601 218.89 334.832 217.422 334.587 215.23L334.576 215.13H337.301L337.324 215.23C337.535 216.242 338.302 216.843 339.704 216.843C341.05 216.843 341.862 216.298 341.862 215.43V215.419C341.862 214.707 341.45 214.307 340.227 214.029L338.269 213.595C336.011 213.094 334.876 211.993 334.876 210.247V210.236C334.876 208.078 336.756 206.62 339.604 206.62C342.541 206.62 344.254 208.233 344.354 210.269L344.365 210.391H341.784L341.773 210.302C341.651 209.357 340.894 208.667 339.604 208.667C338.38 208.667 337.613 209.235 337.613 210.102V210.113C337.613 210.792 338.069 211.237 339.292 211.515L341.261 211.949C343.697 212.494 344.643 213.45 344.643 215.163V215.175C344.643 217.399 342.585 218.89 339.693 218.89ZM351.017 218.89C347.924 218.89 346.156 217.422 345.911 215.23L345.9 215.13H348.625L348.647 215.23C348.859 216.242 349.626 216.843 351.028 216.843C352.374 216.843 353.186 216.298 353.186 215.43V215.419C353.186 214.707 352.774 214.307 351.551 214.029L349.593 213.595C347.335 213.094 346.2 211.993 346.2 210.247V210.236C346.2 208.078 348.08 206.62 350.928 206.62C353.864 206.62 355.577 208.233 355.678 210.269L355.689 210.391H353.108L353.097 210.302C352.975 209.357 352.218 208.667 350.928 208.667C349.704 208.667 348.937 209.235 348.937 210.102V210.113C348.937 210.792 349.393 211.237 350.616 211.515L352.585 211.949C355.021 212.494 355.967 213.45 355.967 215.163V215.175C355.967 217.399 353.909 218.89 351.017 218.89Z" fill="#CBCBCB"/>
<path d="M131.336 22.2781C127.654 22.2781 125.229 20.5428 125.04 17.6618L125.029 17.4949H127.776L127.798 17.6284C128.01 19.0077 129.422 19.8643 131.436 19.8643C133.46 19.8643 134.728 18.9632 134.728 17.5839V17.5728C134.728 16.3714 133.894 15.7263 131.825 15.2924L130.101 14.9365C126.942 14.2802 125.385 12.8119 125.385 10.4203V10.4091C125.396 7.58374 127.876 5.67047 131.336 5.67047C134.84 5.67047 137.131 7.517 137.298 10.2645L137.309 10.4536H134.562L134.539 10.3202C134.35 8.91858 133.115 8.0843 131.313 8.0843C129.434 8.09543 128.266 8.9742 128.266 10.2534V10.2645C128.266 11.3992 129.144 12.0666 131.08 12.467L132.815 12.823C136.152 13.5126 137.609 14.8697 137.609 17.3726V17.3837C137.609 20.3759 135.251 22.2781 131.336 22.2781ZM144.695 22.2336C141.225 22.2336 138.989 19.9199 138.989 16.1045V16.0822C138.989 12.3002 141.258 9.9642 144.684 9.9642C148.121 9.9642 150.402 12.2779 150.402 16.0822V16.1045C150.402 19.931 148.155 22.2336 144.695 22.2336ZM144.706 19.9977C146.453 19.9977 147.576 18.5739 147.576 16.1045V16.0822C147.576 13.6239 146.442 12.2112 144.684 12.2112C142.96 12.2112 141.814 13.635 141.814 16.0822V16.1045C141.814 18.585 142.938 19.9977 144.706 19.9977ZM161.926 22.2336C158.388 22.2336 156.253 19.8865 156.253 16.1378V16.1267C156.253 12.4114 158.422 9.9642 161.792 9.9642C165.163 9.9642 167.254 12.3335 167.254 15.8931V16.783H159C159.045 18.852 160.179 20.0756 161.981 20.0756C163.361 20.0756 164.262 19.3414 164.529 18.5517L164.551 18.4738H167.143L167.109 18.5962C166.742 20.4093 165.007 22.2336 161.926 22.2336ZM161.826 12.1333C160.357 12.1333 159.256 13.1233 159.034 14.9365H164.562C164.362 13.0677 163.294 12.1333 161.826 12.1333ZM169.045 22V10.2089H171.815V12.0999H171.87C172.371 10.8096 173.583 9.9642 175.141 9.9642C176.787 9.9642 177.977 10.8318 178.411 12.3447H178.478C179.045 10.8763 180.447 9.9642 182.149 9.9642C184.473 9.9642 185.997 11.5438 185.997 13.902V22H183.228V14.5916C183.228 13.1344 182.471 12.3002 181.114 12.3002C179.779 12.3002 178.867 13.2902 178.867 14.714V22H176.175V14.447C176.175 13.1233 175.374 12.3002 174.084 12.3002C172.749 12.3002 171.815 13.3458 171.815 14.7807V22H169.045ZM188.222 25.8933V10.2089H190.992V12.2446H191.047C191.726 10.8318 193.016 9.9642 194.707 9.9642C197.699 9.9642 199.59 12.3002 199.59 16.1045V16.1156C199.59 19.8976 197.699 22.2336 194.741 22.2336C193.061 22.2336 191.715 21.3882 191.047 20.0089H190.992V25.8933H188.222ZM193.884 19.8976C195.653 19.8976 196.765 18.4404 196.765 16.1156V16.1045C196.765 13.7462 195.653 12.3002 193.884 12.3002C192.171 12.3002 190.97 13.7907 190.97 16.1045V16.1156C190.97 18.4182 192.171 19.8976 193.884 19.8976ZM205.753 22.2336C203.284 22.2336 202.116 21.2325 202.116 18.8075V12.3447H200.447V10.2089H202.116V7.21666H204.93V10.2089H207.121V12.3447H204.93V18.5739C204.93 19.7308 205.441 20.0979 206.454 20.0979C206.721 20.0979 206.932 20.0645 207.121 20.0534V22.1335C206.799 22.178 206.309 22.2336 205.753 22.2336ZM210.603 25.9155C210.069 25.9155 209.513 25.8488 209.179 25.7932V23.6797C209.39 23.7242 209.713 23.7798 210.102 23.7798C211.159 23.7798 211.749 23.4794 212.105 22.4894L212.271 22.0111L208.033 10.2089H211.059L213.818 19.6418H213.895L216.665 10.2089H219.58L215.342 22.4005C214.441 24.9923 213.061 25.9155 210.603 25.9155ZM220.803 22.178C219.902 22.178 219.19 21.4661 219.19 20.565C219.19 19.6752 219.902 18.9632 220.803 18.9632C221.704 18.9632 222.405 19.6752 222.405 20.565C222.405 21.4661 221.704 22.178 220.803 22.178ZM226.076 22.178C225.175 22.178 224.463 21.4661 224.463 20.565C224.463 19.6752 225.175 18.9632 226.076 18.9632C226.977 18.9632 227.678 19.6752 227.678 20.565C227.678 21.4661 226.977 22.178 226.076 22.178ZM231.348 22.178C230.447 22.178 229.736 21.4661 229.736 20.565C229.736 19.6752 230.447 18.9632 231.348 18.9632C232.25 18.9632 232.95 19.6752 232.95 20.565C232.95 21.4661 232.25 22.178 231.348 22.178Z" fill="#CBCBCB"/>
</svg>
