<svg width="9" height="9" viewBox="0 0 9 9" fill="none" xmlns="http://www.w3.org/2000/svg">
<path fill-rule="evenodd" clip-rule="evenodd" d="M7.06038 3.48379L7.95838 2.58579L7.95839 2.58578C8.23101 2.31316 8.36732 2.17685 8.44019 2.0298C8.57883 1.75003 8.57883 1.42155 8.44019 1.14177C8.36732 0.994724 8.23101 0.858412 7.95838 0.585789L7.95838 0.585786C7.68576 0.313161 7.54944 0.176849 7.4024 0.103981C7.12262 -0.0346603 6.79414 -0.0346603 6.51437 0.103981C6.36732 0.176849 6.23101 0.313162 5.95838 0.585787L5.04905 1.49511C5.53098 2.32041 6.22406 3.00819 7.06038 3.48379ZM4.32183 2.22234L0.886572 5.6576C0.674042 5.87013 0.567777 5.97639 0.497909 6.10694C0.428042 6.23749 0.398569 6.38485 0.339624 6.67958L0.031926 8.21807C-0.00133512 8.38437 -0.0179657 8.46753 0.0293383 8.51483C0.0766423 8.56213 0.159795 8.5455 0.3261 8.51224L1.86459 8.20454C2.15932 8.1456 2.30668 8.11613 2.43723 8.04626C2.56778 7.97639 2.67404 7.87013 2.88657 7.6576L6.33127 4.2129C5.52044 3.70507 4.8346 3.02392 4.32183 2.22234Z" fill="#222222"/>
</svg>
