<svg width="17" height="17" viewBox="0 0 17 17" fill="none" xmlns="http://www.w3.org/2000/svg">
<path d="M15.6627 6.61925C15.8457 6.54504 15.9639 6.51208 16.0727 6.40641C16.1814 6.30074 16.2425 6.15742 16.2425 6.00798C16.2425 5.85854 16.1814 5.71522 16.0727 5.60955C15.9639 5.50388 15.9272 5.44057 15.6627 5.36511C15.3981 5.28965 2.53529 1.06076 2.53529 1.06076C2.33003 0.992463 2.10916 0.981498 1.89781 1.02911C1.68645 1.07671 1.49307 1.18099 1.33966 1.33007C1.18624 1.47916 1.07894 1.66707 1.02995 1.87247C0.98096 2.07786 0.992244 2.29249 1.06252 2.49196C1.06252 2.49196 5.51377 15.0888 5.56815 15.2601C5.62253 15.4313 5.69268 15.5528 5.80142 15.6585C5.91016 15.7642 6.05764 15.8236 6.21142 15.8236C6.3652 15.8236 6.51268 15.7642 6.62142 15.6585C6.73016 15.5528 6.75501 15.493 6.83653 15.2601C6.91805 15.0272 9.11058 8.88166 9.11058 8.88166C9.11058 8.88166 15.4796 6.69346 15.6627 6.61925Z" fill="white" stroke="white" stroke-width="0.7" stroke-linecap="round" stroke-linejoin="round"/>
</svg>
