<svg width="22" height="22" viewBox="0 0 22 22" fill="none" xmlns="http://www.w3.org/2000/svg">
<path fill-rule="evenodd" clip-rule="evenodd" d="M11.2739 2.5069C9.74876 2.5069 8.32195 2.91415 7.09285 3.62515C6.59307 3.91426 5.95355 3.74347 5.66444 3.24369C5.37533 2.7439 5.54611 2.10438 6.0459 1.81527C7.58466 0.925139 9.37139 0.416016 11.2739 0.416016C17.0477 0.416016 21.7283 5.09661 21.7283 10.8704C21.7283 16.6442 17.0477 21.3248 11.2739 21.3248C8.86902 21.3248 6.65118 20.5116 4.88448 19.1457C4.42769 18.7925 4.34368 18.1359 4.69684 17.6791C5.04999 17.2224 5.70657 17.1384 6.16335 17.4915C7.57677 18.5843 9.34797 19.2339 11.2739 19.2339C15.8929 19.2339 19.6374 15.4895 19.6374 10.8704C19.6374 6.25137 15.8929 2.5069 11.2739 2.5069ZM4.6134 4.14332C5.06224 4.50652 5.13167 5.1648 4.76847 5.61364C3.83996 6.76108 3.20986 8.15732 2.99341 9.6861C2.91247 10.2578 2.38341 10.6556 1.81173 10.5747C1.24006 10.4937 0.842234 9.96467 0.923175 9.39299C1.19423 7.47851 1.98361 5.73125 3.14308 4.29838C3.50628 3.84954 4.16457 3.78012 4.6134 4.14332ZM1.9428 12.4796C2.49754 12.3195 3.07702 12.6394 3.2371 13.1942C3.42626 13.8497 3.6936 14.4723 4.02858 15.0514C4.31769 15.5512 4.14691 16.1907 3.64713 16.4798C3.14734 16.7689 2.50782 16.5982 2.21871 16.0984C1.79984 15.3743 1.46512 14.5949 1.22819 13.7739C1.06811 13.2191 1.38805 12.6396 1.9428 12.4796Z" fill="url(#paint0_linear_154_91)"/>
<defs>
<linearGradient id="paint0_linear_154_91" x1="11.3205" y1="0.416016" x2="11.3205" y2="21.3248" gradientUnits="userSpaceOnUse">
<stop stop-color="#0385FF"/>
<stop offset="0.345" stop-color="#BF00FF"/>
<stop offset="0.695" stop-color="#FB00FF"/>
<stop offset="1" stop-color="#FF0051"/>
</linearGradient>
</defs>
</svg>
