<svg width="290" height="260" viewBox="0 0 290 260" fill="none" xmlns="http://www.w3.org/2000/svg">
<circle cx="228.738" cy="30.4984" r="22.8738" fill="#FFB300" stroke="#FFB300" stroke-width="15.2492" stroke-linecap="round"/>
<path d="M33.3349 213.489H180.154C194.594 213.489 203.344 197.548 195.592 185.365L122.183 70.0076C114.992 58.7079 98.4969 58.7079 91.3062 70.0076L17.8967 185.365C10.1444 197.548 18.8953 213.489 33.3349 213.489Z" fill="#EAEAEA"/>
<path d="M140.936 213.489H255.543C270.158 213.489 278.876 197.2 270.768 185.039L213.465 99.0846C206.222 88.2198 190.257 88.2198 183.014 99.0846L125.711 185.039C117.604 197.2 126.321 213.489 140.936 213.489Z" fill="#EAEAEA"/>
<path d="M63.3649 254.552L68.657 240.331H70.4111L75.6933 254.552H73.8308L72.392 250.482H66.6663L65.2275 254.552H63.3649ZM69.5143 242.46L67.2083 248.974H71.8598L69.5537 242.46H69.5143ZM80.7193 254.749C78.0979 254.749 76.3635 252.66 76.3635 249.427V249.417C76.3635 246.185 78.1176 244.106 80.6897 244.106C82.1384 244.106 83.3309 244.835 83.9714 246.017H84.0108V240.331H85.7256V254.552H84.0108V252.817H83.9714C83.3309 254.01 82.1877 254.749 80.7193 254.749ZM81.0544 253.231C82.7888 253.231 84.0207 251.723 84.0207 249.427V249.417C84.0207 247.131 82.779 245.623 81.0544 245.623C79.2411 245.623 78.1176 247.082 78.1176 249.417V249.427C78.1176 251.783 79.2411 253.231 81.0544 253.231ZM91.8947 254.749C89.2733 254.749 87.5389 252.66 87.5389 249.427V249.417C87.5389 246.185 89.293 244.106 91.8652 244.106C93.3138 244.106 94.5063 244.835 95.1468 246.017H95.1863V240.331H96.901V254.552H95.1863V252.817H95.1468C94.5063 254.01 93.3631 254.749 91.8947 254.749ZM92.2298 253.231C93.9642 253.231 95.1961 251.723 95.1961 249.427V249.417C95.1961 247.131 93.9544 245.623 92.2298 245.623C90.4165 245.623 89.293 247.082 89.293 249.417V249.427C89.293 251.783 90.4165 253.231 92.2298 253.231ZM103.356 254.552V244.303H105.071V245.761H105.11C105.662 244.805 106.707 244.106 108.264 244.106C110.511 244.106 111.811 245.564 111.811 247.9V254.552H110.097V248.205C110.097 246.54 109.318 245.623 107.741 245.623C106.125 245.623 105.071 246.776 105.071 248.521V254.552H103.356ZM118.247 254.749C115.399 254.749 113.497 252.689 113.497 249.427V249.408C113.497 246.146 115.408 244.106 118.237 244.106C121.065 244.106 122.987 246.136 122.987 249.408V249.427C122.987 252.699 121.075 254.749 118.247 254.749ZM118.256 253.231C120.06 253.231 121.233 251.832 121.233 249.427V249.408C121.233 247.003 120.05 245.623 118.237 245.623C116.453 245.623 115.251 247.013 115.251 249.408V249.427C115.251 251.842 116.443 253.231 118.256 253.231ZM128.052 254.749C126.17 254.749 125.244 253.901 125.244 251.94V245.722H123.746V244.303H125.244V241.533H127.017V244.303H128.969V245.722H127.017V251.93C127.017 253.024 127.5 253.33 128.417 253.33C128.624 253.33 128.821 253.3 128.969 253.29V254.68C128.752 254.709 128.387 254.749 128.052 254.749ZM134.734 254.749C131.787 254.749 130.013 252.689 130.013 249.467V249.457C130.013 246.284 131.827 244.106 134.625 244.106C137.424 244.106 139.129 246.185 139.129 249.26V249.89H131.748C131.787 251.999 132.95 253.231 134.773 253.231C136.074 253.231 136.991 252.581 137.286 251.704L137.316 251.615H139.001L138.981 251.714C138.646 253.409 136.971 254.749 134.734 254.749ZM134.616 245.623C133.127 245.623 131.965 246.638 131.777 248.55H137.385C137.217 246.559 136.114 245.623 134.616 245.623ZM144.5 254.749C142.086 254.749 140.627 253.517 140.42 251.684L140.41 251.595H142.125L142.145 251.694C142.352 252.719 143.11 253.32 144.51 253.32C145.899 253.32 146.727 252.738 146.727 251.812V251.802C146.727 251.063 146.343 250.649 145.18 250.363L143.554 249.969C141.622 249.506 140.686 248.609 140.686 247.131V247.121C140.686 245.357 142.233 244.106 144.451 244.106C146.698 244.106 148.127 245.416 148.255 247.131L148.265 247.259H146.629L146.619 247.19C146.481 246.195 145.722 245.535 144.451 245.535C143.209 245.535 142.44 246.136 142.44 247.042V247.052C142.44 247.752 142.904 248.235 144.037 248.511L145.663 248.905C147.732 249.408 148.481 250.225 148.481 251.684V251.694C148.481 253.487 146.786 254.749 144.5 254.749ZM154.493 254.552V240.331H156.208V245.939H156.247C156.799 244.786 157.912 244.106 159.44 244.106C161.618 244.106 163.106 245.791 163.106 248.274V254.552H161.391V248.57C161.391 246.717 160.445 245.623 158.849 245.623C157.262 245.623 156.208 246.826 156.208 248.57V254.552H154.493ZM169.502 254.749C166.555 254.749 164.781 252.689 164.781 249.467V249.457C164.781 246.284 166.595 244.106 169.393 244.106C172.192 244.106 173.897 246.185 173.897 249.26V249.89H166.516C166.555 251.999 167.718 253.231 169.541 253.231C170.842 253.231 171.759 252.581 172.054 251.704L172.084 251.615H173.769L173.749 251.714C173.414 253.409 171.739 254.749 169.502 254.749ZM169.384 245.623C167.895 245.623 166.733 246.638 166.545 248.55H172.153C171.985 246.559 170.881 245.623 169.384 245.623ZM175.632 254.552V244.303H177.346V246.037H177.386C177.731 244.855 178.618 244.106 179.771 244.106C180.066 244.106 180.322 244.155 180.46 244.175V245.84C180.322 245.791 179.958 245.742 179.544 245.742C178.213 245.742 177.346 246.668 177.346 248.225V254.552H175.632ZM185.585 254.749C182.638 254.749 180.864 252.689 180.864 249.467V249.457C180.864 246.284 182.678 244.106 185.477 244.106C188.275 244.106 189.98 246.185 189.98 249.26V249.89H182.599C182.638 251.999 183.801 253.231 185.624 253.231C186.925 253.231 187.842 252.581 188.137 251.704L188.167 251.615H189.852L189.832 251.714C189.497 253.409 187.822 254.749 185.585 254.749ZM185.467 245.623C183.979 245.623 182.816 246.638 182.628 248.55H188.236C188.068 246.559 186.965 245.623 185.467 245.623ZM192.769 254.69C192.138 254.69 191.646 254.197 191.646 253.566C191.646 252.936 192.138 252.443 192.769 252.443C193.4 252.443 193.893 252.936 193.893 253.566C193.893 254.197 193.4 254.69 192.769 254.69ZM197.105 254.69C196.475 254.69 195.982 254.197 195.982 253.566C195.982 252.936 196.475 252.443 197.105 252.443C197.736 252.443 198.229 252.936 198.229 253.566C198.229 254.197 197.736 254.69 197.105 254.69ZM201.441 254.69C200.811 254.69 200.318 254.197 200.318 253.566C200.318 252.936 200.811 252.443 201.441 252.443C202.072 252.443 202.565 252.936 202.565 253.566C202.565 254.197 202.072 254.69 201.441 254.69ZM217.209 247.062C216.578 247.062 216.086 246.569 216.086 245.939C216.086 245.308 216.578 244.815 217.209 244.815C217.84 244.815 218.333 245.308 218.333 245.939C218.333 246.569 217.84 247.062 217.209 247.062ZM217.209 254.69C216.578 254.69 216.086 254.197 216.086 253.566C216.086 252.936 216.578 252.443 217.209 252.443C217.84 252.443 218.333 252.936 218.333 253.566C218.333 254.197 217.84 254.69 217.209 254.69ZM221.21 258.001H219.771C221.191 256.355 222.265 252.453 222.265 249.161C222.265 245.87 221.191 241.977 219.771 240.331H221.21C223.132 242.775 224.009 245.653 224.009 249.161C224.009 252.669 223.132 255.567 221.21 258.001Z" fill="#CACACA"/>
</svg>
