<svg width="23" height="22" viewBox="0 0 23 22" fill="none" xmlns="http://www.w3.org/2000/svg">
<g clip-path="url(#clip0_2_4066)">
<path d="M11.7204 20.4666C11.8506 20.4666 11.9759 20.4617 12.0964 20.4519C12.2168 20.4421 12.3454 20.4307 12.4821 20.4177L13.0388 21.492C13.0909 21.6026 13.169 21.684 13.2731 21.7361C13.3773 21.7881 13.4978 21.8044 13.6345 21.7849C13.7516 21.7653 13.8509 21.7116 13.9323 21.6238C14.0137 21.5359 14.0642 21.4269 14.0837 21.2967L14.2497 20.115C14.4906 20.0499 14.7314 19.9734 14.9723 19.8855C15.2132 19.7976 15.4476 19.7016 15.6755 19.5974L16.5544 20.3885C16.6455 20.4796 16.7497 20.5317 16.8669 20.5447C16.9841 20.5577 17.1013 20.5316 17.2184 20.4666C17.4398 20.3428 17.5244 20.141 17.4723 19.8611L17.2282 18.6892C17.43 18.5525 17.6302 18.4028 17.8288 18.24C18.0273 18.0772 18.2178 17.9047 18.4001 17.7224L19.4841 18.1814C19.738 18.2856 19.9593 18.227 20.1481 18.0056C20.2262 17.9144 20.2702 17.8119 20.28 17.698C20.2897 17.584 20.2588 17.4717 20.1872 17.3611L19.5524 16.3455C19.7021 16.1436 19.8372 15.932 19.9577 15.7107C20.0782 15.4893 20.1937 15.2615 20.3044 15.0271L21.5055 15.0857C21.6292 15.0922 21.7416 15.0629 21.8425 14.9978C21.9434 14.9327 22.0133 14.8383 22.0524 14.7146C22.0915 14.5974 22.0931 14.4818 22.0573 14.3679C22.0215 14.2539 21.9548 14.1579 21.8571 14.0799L20.9196 13.3377C20.9847 13.1033 21.0417 12.8607 21.0905 12.6101C21.1394 12.3595 21.1736 12.1007 21.1931 11.8338L22.3161 11.4822C22.583 11.391 22.7165 11.212 22.7165 10.9451C22.7165 10.6847 22.583 10.5089 22.3161 10.4177L21.1931 10.0564C21.1736 9.79597 21.1394 9.54207 21.0905 9.29467C21.0417 9.04728 20.9847 8.80314 20.9196 8.56225L21.8571 7.8103C21.9548 7.73869 22.0215 7.64917 22.0573 7.54174C22.0931 7.43432 22.0915 7.31876 22.0524 7.19506C22.0133 7.07137 21.9434 6.97697 21.8425 6.91186C21.7416 6.84675 21.6292 6.81746 21.5055 6.82397L20.3044 6.8728C20.1937 6.63843 20.0782 6.41219 19.9577 6.19409C19.8372 5.97599 19.7021 5.76277 19.5524 5.55444L20.1872 4.53881C20.2588 4.43464 20.2897 4.32559 20.28 4.21166C20.2702 4.09773 20.2262 3.9952 20.1481 3.90405C19.9593 3.6827 19.738 3.6241 19.4841 3.72827L18.4001 4.16772C18.2178 3.99845 18.0273 3.8308 17.8288 3.66479C17.6302 3.49878 17.43 3.34741 17.2282 3.21069L17.4723 2.04858C17.4984 1.91186 17.4902 1.78979 17.4479 1.68237C17.4056 1.57495 17.3291 1.49194 17.2184 1.43334C17.1013 1.36824 16.9841 1.3422 16.8669 1.35522C16.7497 1.36824 16.6455 1.42358 16.5544 1.52124L15.6755 2.29272C15.4476 2.18855 15.2132 2.09578 14.9723 2.0144C14.7314 1.93302 14.4906 1.85652 14.2497 1.78491L14.0837 0.603266C14.0642 0.479568 14.0137 0.373773 13.9323 0.285883C13.8509 0.197993 13.7484 0.144282 13.6247 0.12475C13.4945 0.105219 13.3773 0.121495 13.2731 0.173579C13.169 0.225662 13.0909 0.303787 13.0388 0.407954L12.4821 1.48217C12.3454 1.46915 12.2168 1.45939 12.0964 1.45288C11.9759 1.44637 11.8506 1.44311 11.7204 1.44311C11.5902 1.44311 11.4632 1.44637 11.3395 1.45288C11.2158 1.45939 11.0889 1.46915 10.9587 1.48217L10.3923 0.407954C10.3402 0.303787 10.2621 0.225662 10.1579 0.173579C10.0537 0.121495 9.93654 0.105219 9.80633 0.12475C9.68263 0.144282 9.58009 0.197993 9.49871 0.285883C9.41733 0.373773 9.37013 0.479568 9.35711 0.603266L9.18133 1.77514C8.94045 1.84675 8.70119 1.92488 8.46356 2.00952C8.22593 2.09415 7.98993 2.18855 7.75555 2.29272L6.87664 1.52124C6.7855 1.42358 6.68133 1.36824 6.56414 1.35522C6.44696 1.3422 6.32977 1.36824 6.21258 1.43334C6.10191 1.49194 6.02541 1.57495 5.98309 1.68237C5.94077 1.78979 5.93264 1.91186 5.95868 2.04858L6.20282 3.21069C6.001 3.34741 5.8008 3.49878 5.60223 3.66479C5.40367 3.8308 5.21324 3.99845 5.03094 4.16772L3.94696 3.72827C3.69306 3.6241 3.47496 3.6827 3.29266 3.90405C3.20803 3.9952 3.16083 4.09773 3.15106 4.21166C3.1413 4.32559 3.17222 4.43139 3.24383 4.52905L3.8786 5.55444C3.73537 5.76277 3.60191 5.97599 3.47821 6.19409C3.35451 6.41219 3.23732 6.63843 3.12664 6.8728L1.93524 6.82397C1.80503 6.81746 1.6911 6.84675 1.59345 6.91186C1.49579 6.97697 1.42417 7.07137 1.3786 7.19506C1.33954 7.31876 1.33628 7.43432 1.36884 7.54174C1.40139 7.64917 1.46975 7.73869 1.57391 7.8103L2.51141 8.56225C2.44631 8.80314 2.39097 9.04728 2.34539 9.29467C2.29982 9.54207 2.27052 9.79597 2.2575 10.0564L1.11493 10.4177C0.854513 10.5023 0.724304 10.6781 0.724304 10.9451C0.724304 11.212 0.854513 11.391 1.11493 11.4822L2.2575 11.8435C2.27052 12.1039 2.29982 12.3595 2.34539 12.6101C2.39097 12.8607 2.44631 13.1033 2.51141 13.3377L1.57391 14.0799C1.47626 14.1579 1.41115 14.2523 1.3786 14.3631C1.34605 14.4737 1.34605 14.5909 1.3786 14.7146C1.42417 14.8383 1.49579 14.9327 1.59345 14.9978C1.6911 15.0629 1.80503 15.0922 1.93524 15.0857L3.12664 15.0271C3.23732 15.2615 3.35451 15.4893 3.47821 15.7107C3.60191 15.932 3.73537 16.1436 3.8786 16.3455L3.24383 17.3611C3.17222 17.4717 3.1413 17.584 3.15106 17.698C3.16083 17.8119 3.20803 17.9144 3.29266 18.0056C3.47496 18.227 3.69306 18.2856 3.94696 18.1814L5.03094 17.7224C5.21324 17.9047 5.40367 18.0772 5.60223 18.24C5.8008 18.4028 6.001 18.5525 6.20282 18.6892L5.95868 19.8611C5.93264 19.9913 5.94077 20.1101 5.98309 20.2176C6.02541 20.325 6.10191 20.408 6.21258 20.4666C6.33628 20.5316 6.4551 20.5577 6.56903 20.5447C6.68296 20.5317 6.7855 20.4796 6.87664 20.3885L7.75555 19.5974C7.98993 19.7016 8.22593 19.7976 8.46356 19.8855C8.70119 19.9734 8.94045 20.0499 9.18133 20.115L9.35711 21.2967C9.37013 21.4269 9.41733 21.5359 9.49871 21.6238C9.58009 21.7116 9.68263 21.7653 9.80633 21.7849C9.93654 21.8044 10.0537 21.7881 10.1579 21.7361C10.2621 21.684 10.3402 21.6026 10.3923 21.492L10.9587 20.4177C11.0889 20.4307 11.2158 20.4421 11.3395 20.4519C11.4632 20.4617 11.5902 20.4666 11.7204 20.4666ZM11.7204 18.9822C10.6006 18.9822 9.56057 18.7755 8.60028 18.3621C7.64 17.9487 6.80015 17.3757 6.08075 16.6433C5.36135 15.9109 4.79982 15.058 4.39618 14.0847C3.99254 13.1114 3.79071 12.0681 3.79071 10.9549C3.79071 9.84156 3.99254 8.79826 4.39618 7.82495C4.79982 6.85164 5.36135 5.99878 6.08075 5.26635C6.80015 4.53393 7.64 3.96101 8.60028 3.5476C9.56057 3.13419 10.6006 2.92749 11.7204 2.92749C12.8402 2.92749 13.8802 3.13419 14.8405 3.5476C15.8008 3.96101 16.6406 4.53393 17.36 5.26635C18.0794 5.99878 18.6409 6.85164 19.0446 7.82495C19.4483 8.79826 19.6501 9.84156 19.6501 10.9549C19.6501 12.0681 19.4483 13.1114 19.0446 14.0847C18.6409 15.058 18.0794 15.9109 17.36 16.6433C16.6406 17.3757 15.8008 17.9487 14.8405 18.3621C13.8802 18.7755 12.8402 18.9822 11.7204 18.9822ZM11.7009 13.5525C12.2608 13.5525 12.7572 13.3848 13.1901 13.0496C13.623 12.7143 13.9502 12.2309 14.1716 11.5994H20.5778L20.5681 10.3299H14.1716C13.9437 9.71135 13.6133 9.23933 13.1804 8.91381C12.7474 8.58829 12.2542 8.42553 11.7009 8.42553C11.6097 8.42553 11.512 8.43204 11.4079 8.44506C11.3037 8.45808 11.1735 8.48087 11.0173 8.51342L7.80438 3.01538L6.6618 3.65991L9.92352 9.21655C9.6566 9.48998 9.45966 9.77482 9.3327 10.0711C9.20575 10.3673 9.14227 10.6749 9.14227 10.9939C9.14227 11.2999 9.20412 11.5961 9.32782 11.8826C9.45152 12.169 9.64683 12.4555 9.91375 12.742L6.55438 18.24L7.68719 18.9138L11.0173 13.4549C11.167 13.4939 11.2956 13.52 11.403 13.533C11.5104 13.546 11.6097 13.5525 11.7009 13.5525ZM10.529 10.9842C10.529 10.6521 10.6478 10.3721 10.8854 10.1443C11.1231 9.91642 11.4014 9.80249 11.7204 9.80249C12.0459 9.80249 12.3275 9.91642 12.5651 10.1443C12.8028 10.3721 12.9216 10.6521 12.9216 10.9842C12.9216 11.3096 12.8028 11.5896 12.5651 11.824C12.3275 12.0584 12.0459 12.1756 11.7204 12.1756C11.4014 12.1756 11.1231 12.0584 10.8854 11.824C10.6478 11.5896 10.529 11.3096 10.529 10.9842Z" fill="#8E8E93" style="fill:#8E8E93;fill:color(display-p3 0.5569 0.5569 0.5765);fill-opacity:1;"/>
</g>
<defs>
<clipPath id="clip0_2_4066">
<rect width="21.9922" height="21.764" fill="white" style="fill:white;fill-opacity:1;" transform="translate(0.724304 0.0288696)"/>
</clipPath>
</defs>
</svg>
