<svg width="19" height="21" viewBox="0 0 19 21" fill="none" xmlns="http://www.w3.org/2000/svg">
<g clip-path="url(#clip0_320_311)">
<path d="M0 15.5273C0 15.8854 0.130208 16.1719 0.390625 16.3867C0.651042 16.6016 1.01237 16.709 1.47461 16.709H5.5957C5.62175 17.3405 5.79265 17.9231 6.1084 18.457C6.42415 18.9909 6.84896 19.4222 7.38281 19.751C7.91666 20.0797 8.52539 20.2441 9.20898 20.2441C9.89906 20.2441 10.511 20.0797 11.0449 19.751C11.5788 19.4222 12.0036 18.9909 12.3193 18.457C12.6351 17.9231 12.806 17.3405 12.832 16.709H16.9531C17.4154 16.709 17.7767 16.6016 18.0371 16.3867C18.2975 16.1719 18.4277 15.8854 18.4277 15.5273C18.4277 15.2018 18.3333 14.8861 18.1445 14.5801C17.9557 14.2741 17.7197 13.9746 17.4365 13.6816C17.1533 13.3887 16.8717 13.0957 16.5918 12.8027C16.3769 12.5814 16.2093 12.2917 16.0889 11.9336C15.9684 11.5755 15.8789 11.1947 15.8203 10.791C15.7617 10.3873 15.7194 9.99671 15.6934 9.61914C15.6869 9.30013 15.6738 8.98925 15.6543 8.68652C15.6348 8.38379 15.6087 8.08919 15.5762 7.80273C15.3483 7.87435 15.0928 7.93132 14.8096 7.97363C14.5264 8.01595 14.2676 8.0306 14.0332 8.01758C14.0593 8.27149 14.0821 8.54167 14.1016 8.82812C14.1211 9.11458 14.1341 9.42057 14.1406 9.74609C14.1601 10.2214 14.1976 10.6576 14.2529 11.0547C14.3082 11.4518 14.3799 11.8132 14.4678 12.1387C14.5557 12.4642 14.6647 12.7556 14.7949 13.0127C14.9251 13.2698 15.0781 13.4961 15.2539 13.6914C15.4297 13.8802 15.6039 14.0657 15.7764 14.248C15.9489 14.4303 16.1019 14.598 16.2354 14.751C16.3688 14.904 16.4648 15.0261 16.5234 15.1172V15.2344H1.89453V15.1172C1.95312 15.0261 2.05078 14.904 2.1875 14.751C2.32422 14.598 2.47884 14.4303 2.65137 14.248C2.8239 14.0657 2.99479 13.8802 3.16406 13.6914C3.33984 13.4961 3.49284 13.2698 3.62305 13.0127C3.75326 12.7556 3.86393 12.4642 3.95508 12.1387C4.04623 11.8132 4.11784 11.4518 4.16992 11.0547C4.22201 10.6576 4.26107 10.2214 4.28711 9.74609C4.31315 8.32682 4.45963 7.20052 4.72656 6.36719C4.99349 5.53386 5.34993 4.91374 5.7959 4.50684C6.24186 4.09993 6.74479 3.81836 7.30469 3.66211C7.42838 3.63607 7.52278 3.58887 7.58789 3.52051C7.653 3.45215 7.6888 3.35612 7.69531 3.23242C7.71484 2.72461 7.8597 2.30957 8.12988 1.9873C8.40007 1.66504 8.75977 1.50391 9.20898 1.50391C9.39779 1.50391 9.55729 1.52995 9.6875 1.58203C9.77865 1.35416 9.88608 1.13606 10.0098 0.927734C10.1335 0.719401 10.2734 0.524088 10.4297 0.341797C10.0521 0.159505 9.64518 0.0683594 9.20898 0.0683594C8.49284 0.0683594 7.88575 0.289714 7.3877 0.732422C6.88965 1.17513 6.55924 1.71549 6.39648 2.35352C5.5306 2.66602 4.83236 3.14779 4.30176 3.79883C3.77116 4.44987 3.38216 5.26204 3.13477 6.23535C2.88737 7.20866 2.75391 8.33659 2.73438 9.61914C2.70833 9.99671 2.66601 10.3873 2.60742 10.791C2.54883 11.1947 2.45931 11.5755 2.33887 11.9336C2.21842 12.2917 2.05078 12.5814 1.83594 12.8027C1.55599 13.0957 1.27442 13.3887 0.991211 13.6816C0.708008 13.9746 0.472005 14.2741 0.283203 14.5801C0.094401 14.8861 0 15.2018 0 15.5273ZM7.11914 16.709H11.3086C11.2695 17.3731 11.0579 17.8988 10.6738 18.2861C10.2897 18.6735 9.80146 18.8672 9.20898 18.8672C8.62305 18.8672 8.13639 18.6735 7.74902 18.2861C7.36165 17.8988 7.15169 17.3731 7.11914 16.709Z" fill="white" fill-opacity="0.5"/>
<path d="M14.0234 6.77734C14.6354 6.77734 15.1986 6.62435 15.7129 6.31836C16.2273 6.01237 16.6374 5.60222 16.9434 5.08789C17.2494 4.57357 17.4023 4.00716 17.4023 3.38867C17.4023 2.77018 17.2494 2.20378 16.9434 1.68945C16.6374 1.17513 16.2273 0.764974 15.7129 0.458984C15.1986 0.152995 14.6354 0 14.0234 0C13.3984 0 12.8304 0.152995 12.3193 0.458984C11.8083 0.764974 11.3998 1.17513 11.0938 1.68945C10.7878 2.20378 10.6348 2.77018 10.6348 3.38867C10.6348 4.00716 10.7878 4.57357 11.0938 5.08789C11.3998 5.60222 11.8083 6.01237 12.3193 6.31836C12.8304 6.62435 13.3984 6.77734 14.0234 6.77734Z" fill="#30FF4F"/>
</g>
<defs>
<clipPath id="clip0_320_311">
<rect width="18.4277" height="20.3223" fill="white"/>
</clipPath>
</defs>
</svg>
