<svg width="12" height="13" viewBox="0 0 12 13" fill="none" xmlns="http://www.w3.org/2000/svg">
<path d="M0.884766 9.98436H10.1719C10.4492 9.98436 10.666 9.91992 10.8223 9.79104C10.9785 9.66212 11.0566 9.49024 11.0566 9.2754C11.0566 9.08008 11 8.89062 10.8867 8.70702C10.7734 8.52342 10.6318 8.34374 10.4619 8.16798C10.292 7.99218 10.123 7.8164 9.95508 7.64064C9.82616 7.5078 9.72558 7.33396 9.65334 7.11912C9.58106 6.90428 9.52734 6.67578 9.49218 6.43362C9.45702 6.19142 9.43164 5.95704 9.41604 5.73047C9.40432 4.98047 9.32326 4.3125 9.17286 3.72656C9.02246 3.14062 8.78906 2.64844 8.47266 2.25C8.15626 1.85156 7.73828 1.5586 7.21872 1.3711C7.10936 0.98828 6.9082 0.66406 6.61524 0.398437C6.32228 0.132812 5.959 0 5.52539 0C5.0957 0 4.73438 0.132812 4.4414 0.398437C4.14844 0.66406 3.94726 0.98828 3.83789 1.3711C3.31836 1.5586 2.89942 1.85156 2.58106 2.25C2.2627 2.64844 2.0293 3.14062 1.88086 3.72656C1.73242 4.3125 1.65234 4.98047 1.64063 5.73047C1.625 5.95704 1.59961 6.19142 1.56445 6.43362C1.5293 6.67578 1.47559 6.90428 1.40332 7.11912C1.33105 7.33396 1.23047 7.5078 1.10156 7.64064C0.933596 7.8164 0.76465 7.99218 0.594727 8.16798C0.424805 8.34374 0.283203 8.52342 0.169922 8.70702C0.0566406 8.89062 0 9.08008 0 9.2754C0 9.49024 0.078125 9.66212 0.234375 9.79104C0.390625 9.91992 0.607422 9.98436 0.884766 9.98436ZM5.52539 12.334C5.85744 12.334 6.15432 12.2617 6.41604 12.1172C6.67776 11.9727 6.88772 11.7832 7.04592 11.5488C7.20412 11.3144 7.29688 11.0605 7.3242 10.7871H3.73242C3.75586 11.0605 3.84766 11.3144 4.00781 11.5488C4.16797 11.7832 4.37891 11.9727 4.64063 12.1172C4.90234 12.2617 5.19726 12.334 5.52539 12.334Z" fill="#FF3B30"/>
</svg>
